<svg width="256" height="256" viewBox="0 0 256 256" fill="none" xmlns="http://www.w3.org/2000/svg">
  <!-- Background circle -->
  <circle cx="128" cy="128" r="128" fill="#0F3460"/>
  
  <!-- Notepad outline -->
  <rect x="45" y="35" width="125" height="160" rx="14" fill="#E8F4F8" stroke="#16213E" stroke-width="7"/>
  
  <!-- Spiral binding rings -->
  <circle cx="70" cy="28" r="7" fill="#16213E"/>
  <circle cx="107" cy="28" r="7" fill="#16213E"/>
  <circle cx="144" cy="28" r="7" fill="#16213E"/>
  
  <!-- Note lines -->
  <line x1="60" y1="75" x2="140" y2="75" stroke="#16213E" stroke-width="5" stroke-linecap="round"/>
  <line x1="60" y1="105" x2="140" y2="105" stroke="#16213E" stroke-width="5" stroke-linecap="round"/>
  <line x1="60" y1="135" x2="105" y2="135" stroke="#16213E" stroke-width="5" stroke-linecap="round"/>
  <line x1="60" y1="165" x2="140" y2="165" stroke="#16213E" stroke-width="5" stroke-linecap="round"/>
  
  <!-- Blockchain hexagon -->
  <g transform="translate(165, 115)">
    <!-- Hexagon outer -->
    <path d="M 35 0 L 65 18 L 65 54 L 35 72 L 5 54 L 5 18 Z" fill="#16213E" stroke="#35C695" stroke-width="5"/>
    <!-- Inner hexagon -->
    <path d="M 35 18 L 52 28 L 52 46 L 35 56 L 18 46 L 18 28 Z" fill="#35C695"/>
  </g>
  
  <!-- Connection dot -->
  <circle cx="155" cy="140" r="6" fill="#35C695"/>
  <line x1="140" y1="140" x2="155" y2="140" stroke="#35C695" stroke-width="4" stroke-linecap="round"/>
</svg>
